<?xml version="1.0" encoding="UTF-8" standalone="no"?>
<!-- Created with Inkscape (http://www.inkscape.org/) -->

<svg
   version="1.1"
   id="svg1"
   width="290.23999"
   height="77.440002"
   viewBox="0 0 290.23999 77.440002"
   sodipodi:docname="QMUL_logo.svg"
   inkscape:version="1.3.2 (091e20e, 2023-11-25)"
   xml:space="preserve"
   xmlns:inkscape="http://www.inkscape.org/namespaces/inkscape"
   xmlns:sodipodi="http://sodipodi.sourceforge.net/DTD/sodipodi-0.dtd"
   xmlns="http://www.w3.org/2000/svg"
   xmlns:svg="http://www.w3.org/2000/svg"><defs
     id="defs1" /><sodipodi:namedview
     id="namedview1"
     pagecolor="#ffffff"
     bordercolor="#000000"
     borderopacity="0.25"
     inkscape:showpageshadow="2"
     inkscape:pageopacity="0.0"
     inkscape:pagecheckerboard="0"
     inkscape:deskcolor="#d1d1d1"
     inkscape:zoom="1.960384"
     inkscape:cx="129.8215"
     inkscape:cy="32.136561"
     inkscape:window-width="1512"
     inkscape:window-height="842"
     inkscape:window-x="0"
     inkscape:window-y="38"
     inkscape:window-maximized="0"
     inkscape:current-layer="g1" /><g
     inkscape:groupmode="layer"
     inkscape:label="Image"
     id="g1"><path
       style="fill:#ffff00;stroke-width:0.525901"
       d=""
       id="path2" /><path
       style="fill:#ffff00;stroke-width:0.525901"
       d=""
       id="path3" /><path
       style="fill:#4d5ec0;fill-opacity:1"
       d="m 272.30286,58.202061 c -0.11733,-0.117333 -0.21333,-0.694422 -0.21333,-1.28242 v -1.069082 l 1.89629,0.0824 c 1.50959,0.0656 2.08058,-0.0542 2.8,-0.58767 0.49704,-0.36855 1.2245,-1.23255 1.61659,-1.92 0.39208,-0.68745 0.91091,-1.82592 1.15294,-2.52992 l 0.44007,-1.28 -4.08062,-11.52 -4.08061,-11.519998 1.45231,-0.0994 c 0.79877,-0.0547 1.55809,0.0173 1.68738,0.16 0.12928,0.14265 1.57242,4.219358 3.20697,9.059358 1.63455,4.84 3.06055,8.90466 3.16888,9.03258 0.10833,0.12792 1.6279,-3.94008 3.37683,-9.04 l 3.17988,-9.272578 h 1.53154 c 0.84235,0 1.53155,0.0622 1.53155,0.13826 0,0.076 -2.07548,6.105238 -4.61218,13.398208 -2.5367,7.29298 -4.90633,13.83655 -5.26585,14.54127 -0.35952,0.70472 -1.09162,1.69465 -1.62688,2.199852 -0.53526,0.505199 -1.44162,1.088458 -2.01414,1.296132 -0.57252,0.207674 -1.91695,0.388544 -2.98762,0.401934 -1.07066,0.01339 -2.04266,-0.07165 -2.16,-0.188989 z M 11.314085,56.946949 c -0.563675,-0.474302 -0.984552,-1.13707 -0.984552,-1.5504 0,-0.39708 0.303066,-0.99628 0.67348,-1.33156 l 0.673479,-0.6096 23.650738,-0.086 c 20.567236,-0.0748 23.772393,-0.0231 24.583842,0.3965 0.513207,0.26538 1.023286,0.76666 1.133509,1.11394 0.110223,0.34729 0.04416,0.92338 -0.146808,1.2802 -0.190968,0.356828 -0.767794,0.866268 -1.281836,1.132089 -0.514043,0.265822 -1.697774,0.487247 -2.630514,0.492055 -0.93274,0.0048 -6.102955,-0.310642 -11.489366,-0.701 l -9.793475,-0.709742 -9.726525,0.706049 c -5.349588,0.388327 -10.615475,0.703777 -11.701972,0.701 -1.65409,-0.0042 -2.13561,-0.139818 -2.96,-0.833495 z m 97.093125,-5.04397 c -0.88129,-0.4104 -2.06802,-1.27656 -2.6372,-1.92481 l -1.03486,-1.17865 -1.36281,0.72794 c -1.18046,0.63054 -1.83379,0.72793 -4.882803,0.72793 -2.94141,0 -3.76813,-0.11462 -5.02952,-0.69736 -0.83023,-0.38355 -2.234038,-1.37508 -3.11957,-2.20339 -0.976079,-0.91301 -2.042545,-2.37051 -2.708405,-3.70149 -0.604091,-1.2075 -1.342496,-3.29287 -1.6409,-4.63414 -0.423312,-1.90271 -0.504372,-3.36228 -0.368827,-6.64114 0.100983,-2.4428 0.381383,-4.845178 0.669652,-5.737378 0.272759,-0.8442 0.956896,-2.39978 1.520305,-3.45685 0.563409,-1.05706 1.792759,-2.62418 2.731888,-3.4825 1.024515,-0.93635 2.443077,-1.8376 3.546437,-2.25315 1.54106,-0.58041 2.33137,-0.6716 4.87894,-0.56298 2.494903,0.10638 3.333053,0.28071 4.674383,0.97227 0.89891,0.46347 2.07444,1.21295 2.61228,1.66552 0.53785,0.45256 1.48856,1.59218 2.1127,2.53248 0.62413,0.94029 1.51181,2.83277 1.97262,4.20551 0.60416,1.79977 0.88659,3.441208 1.01262,5.885248 0.12403,2.40533 0.0275,4.16383 -0.33252,6.05694 -0.27901,1.46717 -0.9638,3.65798 -1.52174,4.86846 -0.55795,1.21048 -1.28353,2.44439 -1.6124,2.74201 -0.32887,0.29763 -0.59794,0.77857 -0.59794,1.06877 0,0.29019 0.48425,0.99699 1.07612,1.57065 0.79086,0.76653 1.49071,1.10191 2.64,1.26514 l 1.56387,0.2221 0.0984,1.35764 0.0984,1.35764 -1.3784,-0.003 c -0.76621,-0.002 -2.09004,-0.33452 -2.98072,-0.74929 z m -6.72968,-4.71058 c 0.9746,-0.36464 1.77201,-0.76383 1.77201,-0.88709 0,-0.12325 -0.43599,-0.75303 -0.96887,-1.3995 -0.53288,-0.64647 -1.46888,-1.35621 -2.08,-1.57719 l -1.111133,-0.40179 v -1.53572 c 0,-1.04895 0.13222,-1.53572 0.41717,-1.53572 0.22944,0 1.156133,0.36824 2.059303,0.81832 0.90318,0.45007 2.1457,1.37568 2.76115,2.05692 l 1.11901,1.23861 0.48688,-0.74307 c 0.26778,-0.40869 0.79312,-1.65215 1.16742,-2.76324 0.44089,-1.30875 0.74181,-3.20826 0.8545,-5.39386 0.12165,-2.3595 0.0262,-4.14325 -0.31762,-5.93368 -0.27035,-1.407998 -0.78214,-3.232428 -1.13729,-4.054288 -0.35516,-0.82186 -1.186,-2.09229 -1.84631,-2.82317 -0.66031,-0.73089 -1.78215,-1.62559 -2.49297,-1.98822 -0.71083,-0.36264 -2.17691,-0.73034 -3.257963,-0.81712 -1.36125,-0.10927 -2.46957,0.01 -3.605,0.38676 -0.99969,0.33205 -2.17508,1.06579 -3.01207,1.88029 -0.754943,0.73467 -1.695522,2.0237 -2.090178,2.86452 -0.394656,0.84082 -0.928836,2.42482 -1.187067,3.52 -0.263546,1.117718 -0.469511,3.535388 -0.469511,5.511228 0,1.99059 0.205908,4.39337 0.473905,5.53008 0.260649,1.10554 0.781559,2.61312 1.157578,3.35018 0.37602,0.73706 0.98651,1.74972 1.356646,2.25035 0.370135,0.50064 1.162147,1.21257 1.760027,1.58208 0.59787,0.36951 1.608,0.858 2.24472,1.08553 0.63671,0.22753 1.83626,0.42001 2.66566,0.42774 0.8294,0.008 2.305403,-0.2843 3.280003,-0.64895 z m -49.427998,4.64328 c -0.968,-0.24552 -3.45609,-1.07112 -5.529089,-1.83465 l -3.769089,-1.38825 -2.150911,0.73305 c -1.645712,0.56087 -2.875809,0.73498 -5.237203,0.7413 -2.194041,0.006 -3.680914,-0.17539 -5.143082,-0.62701 -1.131233,-0.34941 -2.910402,-1.18747 -3.953707,-1.86236 -1.043305,-0.67489 -2.580543,-1.98818 -3.416084,-2.9184 -0.835542,-0.93023 -2.018532,-2.72017 -2.628868,-3.97765 -0.717851,-1.47899 -1.216676,-3.10054 -1.412649,-4.59217 -0.179939,-1.36959 -0.190133,-3.20431 -0.0251,-4.5186 0.152814,-1.21702 0.525007,-2.843378 0.827096,-3.614148 0.302089,-0.77077 1.01489,-2.13911 1.584002,-3.04076 0.569113,-0.90165 1.570523,-2.17514 2.225356,-2.82997 0.654832,-0.65483 1.944652,-1.67296 2.866266,-2.26251 0.921614,-0.58955 2.535693,-1.36163 3.586842,-1.71574 1.051149,-0.35411 2.852364,-0.74026 4.002701,-0.85811 1.21801,-0.12479 3.010755,-0.0556 4.292522,0.16575 1.210551,0.20901 3.260566,0.88791 4.555588,1.50865 1.608216,0.77086 2.990164,1.76419 4.359648,3.13368 1.343738,1.34373 2.386847,2.78552 3.162595,4.37134 0.672726,1.37521 1.320024,3.337978 1.545498,4.686338 0.299948,1.79371 0.302886,2.90378 0.01295,4.89301 -0.227604,1.5616 -0.762544,3.38496 -1.360917,4.63873 -0.542248,1.13618 -1.764052,2.90627 -2.715118,3.93354 l -1.729213,1.86776 4.149392,1.49345 c 2.282165,0.82139 4.584033,1.49344 5.115261,1.49344 0.531228,0 1.454044,-0.20397 2.050702,-0.45327 0.596657,-0.2493 1.317017,-0.80763 1.600799,-1.24073 0.283782,-0.43311 0.649809,-1.25415 0.813392,-1.82453 0.209406,-0.73015 0.173447,-1.33365 -0.121508,-2.03926 -0.230413,-0.55121 -0.64439,-1.18917 -0.919949,-1.41769 -0.275558,-0.22852 -1.053864,-0.50095 -1.729569,-0.60541 l -1.228553,-0.18992 0.72,0.78603 c 0.396,0.43232 0.72,1.10075 0.72,1.48541 0,0.38466 -0.288,0.98737 -0.64,1.33937 -0.352,0.352 -0.977682,0.64 -1.390404,0.64 -0.412722,0 -0.998851,-0.27453 -1.302507,-0.61006 -0.350682,-0.3875 -0.514706,-0.99668 -0.449596,-1.66979 0.07619,-0.78771 0.381602,-1.24715 1.189829,-1.78993 0.774129,-0.51988 1.551898,-0.73022 2.700199,-0.73022 1.144263,0 1.915841,0.2076 2.655625,0.71451 0.573513,0.39298 1.360875,1.28053 1.749694,1.97234 0.436464,0.77658 0.699113,1.77577 0.686478,2.61155 -0.01126,0.74454 -0.194986,1.69299 -0.40829,2.10766 -0.213303,0.41467 -0.834618,1.22589 -1.380699,1.80271 -0.597968,0.63163 -1.624011,1.2362 -2.579682,1.52 -0.872744,0.25918 -2.172672,0.45924 -2.888728,0.44457 -0.716055,-0.0147 -2.093919,-0.22754 -3.06192,-0.47305 z m -13.2,-3.67928 c 0.572,-0.19999 1.04,-0.46358 1.04,-0.58576 0,-0.12218 -1.26,-0.67625 -2.8,-1.23126 -1.54,-0.55501 -3.349322,-1.09724 -4.020716,-1.20494 -0.671394,-0.1077 -2.037572,-0.0262 -3.03595,0.18102 l -1.815234,0.37684 1.11595,0.93338 c 0.613773,0.51336 1.979951,1.21663 3.035951,1.56282 1.337378,0.43844 2.45407,0.58424 3.679999,0.48048 0.968,-0.0819 2.228,-0.3126 2.8,-0.51258 z m -8.394131,-4.93638 c 0.436772,-0.0905 1.128053,-0.23282 1.53618,-0.31618 0.408127,-0.0834 1.668127,-0.006 2.8,0.17291 1.131873,0.17845 3.473562,0.78507 5.203754,1.34805 l 3.145802,1.02361 0.917094,-1.11651 c 0.504402,-0.61408 1.28617,-1.86626 1.737261,-2.78262 0.451092,-0.91636 1.052104,-2.57145 1.335582,-3.67797 0.375508,-1.46575 0.472869,-2.88103 0.358678,-5.21389 -0.109533,-2.23769 -0.37223,-3.76486 -0.872266,-5.070878 -0.393541,-1.02787 -1.312325,-2.73982 -2.041742,-3.80432 -0.771238,-1.12554 -2.062711,-2.45049 -3.086212,-3.1662 -1.056292,-0.73864 -2.58213,-1.43778 -3.816178,-1.74857 -1.645624,-0.41445 -2.3929,-0.45022 -3.742584,-0.17917 -0.927524,0.18628 -2.378537,0.68941 -3.224474,1.11808 -0.845938,0.42867 -2.301567,1.58669 -3.234732,2.57337 -0.933165,0.98668 -2.042777,2.55035 -2.465805,3.47482 -0.423027,0.92446 -1.008881,2.61684 -1.301898,3.760838 -0.386656,1.50959 -0.488277,2.8698 -0.370564,4.96 0.110559,1.96315 0.420796,3.58081 0.97451,5.08136 0.446775,1.21075 1.344765,2.97445 1.995533,3.91934 l 1.183216,1.71798 1.087357,-0.95472 c 0.598046,-0.52509 1.444716,-1.02879 1.881488,-1.11933 z m -18.725868,8.30458 c -0.616,-0.27748 -1.528856,-0.89257 -2.0285682,-1.36686 -0.499713,-0.47429 -1.111713,-1.25119 -1.36,-1.72645 -0.248287,-0.47526 -0.451432,-1.56997 -0.451432,-2.43268 0,-1.10163 0.2166,-1.88998 0.727615,-2.64828 0.400188,-0.59384 1.2281882,-1.41996 1.8400002,-1.83582 0.915265,-0.62213 1.412442,-0.73203 2.805656,-0.62019 1.017929,0.0817 2.038955,0.39293 2.56,0.78029 0.602998,0.4483 0.896227,0.98772 0.963673,1.77277 0.06201,0.7218 -0.09036,1.31572 -0.422857,1.64821 -0.285891,0.28589 -0.869515,0.5198 -1.296944,0.5198 -0.427429,0 -1.065143,-0.288 -1.417143,-0.64 -0.352,-0.352 -0.64,-0.928 -0.64,-1.28 0,-0.352 0.282748,-0.92274 0.628328,-1.26832 0.361448,-0.36145 0.49471,-0.71091 0.313744,-0.82276 -0.173021,-0.10693 -0.815322,-0.0292 -1.427336,0.17282 -0.612013,0.20198 -1.329198,0.67626 -1.593743,1.05396 -0.264546,0.37769 -0.480993,1.23782 -0.480993,1.9114 0,0.67358 0.222991,1.6559 0.495536,2.18295 0.272544,0.52704 0.956544,1.23935 1.52,1.58291 0.582737,0.35532 1.600526,0.62517 2.36048,0.62585 0.734809,6.6e-4 2.777459,-0.51654 4.539222,-1.14933 l 3.203207,-1.15052 1.500156,1.14545 c 0.984001,0.75134 1.348981,1.20106 1.060778,1.30705 -0.241659,0.0889 -1.951379,0.68722 -3.799379,1.32967 -2.476384,0.86089 -4.033231,1.20023 -5.92,1.29033 -1.860242,0.0888 -2.866144,-0.0156 -3.68,-0.38225 z m 104.934827,-1.85263 c -1.05152,-0.55606 -1.62875,-1.17014 -2.29033,-2.43654 l -0.8845,-1.69312 v -9.56346 -9.563458 h 1.44 1.44 l 0.0181,9.039998 c 0.0123,6.13802 0.14067,9.38992 0.4,10.13003 0.21006,0.59952 0.78849,1.39152 1.2854,1.76 0.66961,0.49656 1.37367,0.66911 2.72,0.66664 1.08567,-0.002 2.26715,-0.22901 2.93653,-0.56424 0.616,-0.3085 1.948,-1.29093 2.96,-2.18318 l 1.84,-1.62226 v -8.61349 -8.613498 h 1.44 1.44 v 11.839998 11.84 h -1.44 -1.44 v -1.77904 -1.77905 l -1.52,1.28003 c -0.836,0.70402 -2.168,1.57343 -2.96,1.93202 -1.00683,0.45586 -2.12274,0.6541 -3.70966,0.65902 -1.76756,0.006 -2.58068,-0.15744 -3.67551,-0.7364 z m 22.76232,0.19054 c -0.81192,-0.28665 -2.06318,-1.14268 -2.91416,-1.99365 -0.98249,-0.98249 -1.73488,-2.13991 -2.20523,-3.39238 -0.45604,-1.21436 -0.77811,-2.96273 -0.89161,-4.84009 -0.10801,-1.78668 -0.0226,-3.72723 0.21783,-4.94934 0.21753,-1.10568 0.73415,-2.6786 1.14804,-3.49537 0.41389,-0.81678 1.1086,-1.90821 1.54379,-2.425398 0.43519,-0.5172 1.55917,-1.3625 2.49772,-1.87844 1.48527,-0.81649 2.03832,-0.93828 4.26647,-0.93957 2.02996,-10e-4 2.87454,0.15224 4.07915,0.74095 0.83553,0.40834 2.02238,1.33035 2.63744,2.04891 0.61506,0.718568 1.42016,2.109908 1.7891,3.091868 0.36895,0.98197 0.75088,2.82939 0.84875,4.10539 l 0.17794,2.32 h -8.25025 -8.25024 l 0.20607,1.7534 c 0.11335,0.96436 0.49933,2.53717 0.85775,3.49512 0.40818,1.09096 1.11804,2.16308 1.89984,2.8694 0.6865,0.62021 1.86834,1.29492 2.62632,1.49937 0.75797,0.20445 2.08291,0.28852 2.94431,0.18683 0.8614,-0.1017 2.0134,-0.49217 2.56,-0.86772 0.5466,-0.37554 1.49191,-1.35187 2.10068,-2.1696 0.60877,-0.81774 1.13538,-1.53341 1.17026,-1.59039 0.0349,-0.057 0.54479,0.14133 1.13315,0.4407 0.58835,0.29936 1.1174,0.58564 1.17566,0.63618 0.0583,0.0505 -0.0659,0.41301 -0.27597,0.80548 -0.21004,0.39247 -0.97771,1.36262 -1.70593,2.15589 -0.72821,0.79328 -2.04403,1.77909 -2.92403,2.19071 -1.30164,0.60883 -2.1072,0.74425 -4.32,0.72625 -1.59783,-0.013 -3.30701,-0.22939 -4.14285,-0.5245 z m 10.07318,-15.04712 c -0.1215,-0.66 -0.50456,-1.8462 -0.85125,-2.63601 -0.34668,-0.78981 -0.9473,-1.78037 -1.33471,-2.20124 -0.3874,-0.42088 -1.16774,-0.96267 -1.73409,-1.203988 -0.56635,-0.24131 -1.79035,-0.43802 -2.72,-0.43712 -1.18403,0.001 -2.04581,0.21688 -2.87734,0.720298 -0.65289,0.39527 -1.55746,1.2207 -2.01015,1.83429 -0.4527,0.6136 -1.03452,1.8276 -1.29294,2.69778 -0.25841,0.87019 -0.46985,1.77202 -0.46985,2.00407 0,0.33591 1.37728,0.42192 6.75562,0.42192 h 6.75561 z m 11.9876,15.30102 c -0.44114,-0.13419 -1.25265,-0.47699 -1.80336,-0.76177 -0.55071,-0.28478 -1.59685,-1.19438 -2.32476,-2.02133 -0.92315,-1.04876 -1.52645,-2.17181 -1.99453,-3.71287 -0.56875,-1.87247 -0.65029,-2.80363 -0.53481,-6.10719 0.11972,-3.42467 0.24612,-4.14055 1.04123,-5.89705 0.54829,-1.21122 1.46308,-2.51363 2.32096,-3.304398 0.7788,-0.71787 1.9473,-1.53748 2.59667,-1.82137 0.74627,-0.32624 2.12256,-0.52268 3.74067,-0.5339 2.29014,-0.0159 2.74463,0.0868 4.31148,0.97399 1.11146,0.62935 2.13334,1.54585 2.79645,2.508098 0.57474,0.83399 1.26053,2.24223 1.524,3.12942 0.26347,0.88719 0.57295,2.52978 0.68774,3.65021 l 0.20871,2.03714 h -8.248 -8.248 l 0.16953,2.11203 c 0.1156,1.44007 0.46198,2.68386 1.08872,3.90934 0.66911,1.30835 1.3145,2.04173 2.3723,2.69571 0.85541,0.52886 2.13583,0.97925 3.1129,1.09497 1.18505,0.14036 2.06646,0.0413 3.08163,-0.34643 0.78202,-0.29865 1.89901,-1.07589 2.4822,-1.72719 0.58319,-0.65129 1.2796,-1.52134 1.54759,-1.93343 l 0.48725,-0.74926 1.19779,0.70672 1.1978,0.70671 -1.08798,1.48542 c -0.59839,0.81698 -1.6843,1.94765 -2.41313,2.51261 -0.72883,0.56495 -1.8615,1.17615 -2.51706,1.35821 -0.65555,0.18206 -2.27192,0.31945 -3.59192,0.30531 -1.32,-0.0142 -2.76093,-0.13552 -3.20207,-0.2697 z m 9.41017,-15.14102 c -0.0967,-0.572 -0.63314,-1.97165 -1.192,-3.11033 -0.77064,-1.57021 -1.3253,-2.24965 -2.2961,-2.81264 -1.062,-0.615888 -1.64479,-0.724928 -3.42196,-0.640228 -1.8326,0.0873 -2.31768,0.2443 -3.35857,1.086768 -0.66913,0.54157 -1.55292,1.63821 -1.96398,2.43698 -0.41106,0.79876 -0.82666,2.04341 -0.92357,2.76588 l -0.17618,1.31357 h 6.75413 6.75413 z m 71.3919,14.90828 c -0.528,-0.27835 -1.29768,-0.81259 -1.7104,-1.18719 -0.41273,-0.37459 -0.95273,-1.06993 -1.2,-1.54519 -0.25107,-0.48255 -0.4496,-1.7804 -0.4496,-2.93917 0,-1.14128 0.15257,-2.48044 0.33905,-2.97589 0.18648,-0.49546 0.86161,-1.43869 1.5003,-2.09607 0.7003,-0.72081 2.05821,-1.5646 3.42094,-2.12575 1.24284,-0.51178 3.96755,-1.32992 6.05491,-1.81808 l 3.79521,-0.88758 -0.14263,-1.71995 c -0.0858,-1.03437 -0.39911,-2.06543 -0.78606,-2.58668 -0.35388,-0.4767 -0.98953,-1.0446 -1.41257,-1.262008 -0.42303,-0.2174 -1.69569,-0.3974 -2.82812,-0.4 -1.44816,-0.003 -2.47261,0.19553 -3.45333,0.670278 -0.76689,0.37125 -1.91733,1.30064 -2.55652,2.06532 l -1.16216,1.39031 -0.90451,-0.53431 c -0.49748,-0.29387 -0.90451,-0.61522 -0.90451,-0.71411 0,-0.0989 0.23808,-0.53584 0.52908,-0.971 0.29099,-0.43516 0.90299,-1.20063 1.36,-1.701038 0.457,-0.50042 1.55092,-1.28475 2.43092,-1.74297 1.39534,-0.72656 1.98886,-0.83321 4.64,-0.83376 2.49887,-5.2e-4 3.2767,0.12302 4.36975,0.69404 0.73137,0.38207 1.62317,1.06768 1.98178,1.52359 0.35862,0.45591 0.7941,1.287928 0.96773,1.848928 0.17363,0.561 0.36924,5.304 0.43469,10.54 l 0.119,9.52 h -1.18224 c -0.78285,0 -1.24785,-0.17099 -1.37647,-0.50617 -0.10683,-0.27839 -0.19424,-0.85439 -0.19424,-1.28 0,-0.4256 -0.0546,-0.77383 -0.12123,-0.77383 -0.0667,0 -0.96076,0.50554 -1.98685,1.12342 -1.02609,0.61788 -2.37554,1.26508 -2.99877,1.43822 -0.62323,0.17314 -2.14115,0.30983 -3.37315,0.30377 -1.40503,-0.007 -2.59784,-0.19968 -3.2,-0.51713 z m 7.28305,-2.75188 c 0.99719,-0.45653 2.32244,-1.23648 2.945,-1.73322 l 1.13193,-0.90318 1e-5,-3.76 c 10e-6,-3.31343 -0.0641,-3.76 -0.53958,-3.76 -0.29677,0 -1.62877,0.30434 -2.96,0.6763 -1.33122,0.37196 -3.28441,1.08287 -4.34041,1.5798 -1.056,0.49692 -2.14261,1.09259 -2.41468,1.3237 -0.27208,0.23111 -0.74008,0.77625 -1.04,1.21141 -0.30785,0.44665 -0.54532,1.3942 -0.54532,2.17589 0,0.76158 0.22532,1.82041 0.50071,2.35295 0.27539,0.53255 0.95939,1.17573 1.52,1.4293 0.57691,0.26094 1.65077,0.41244 2.47428,0.34907 0.80025,-0.0616 2.27087,-0.4855 3.26806,-0.94202 z m -73.36305,-8.8764 V 26.415391 h 1.44 1.44 v 1.58718 1.587168 l 2.04308,-1.546398 c 1.32675,-1.00421 2.62938,-1.68705 3.71532,-1.94756 0.92612,-0.22217 2.37954,-0.3174 3.25746,-0.21342 0.87188,0.10326 2.18617,0.51925 2.92066,0.92441 0.85367,0.47091 1.62549,1.25471 2.13946,2.172648 l 0.80402,1.43597 0.10084,9.84 0.10085,9.84 h -1.46085 -1.46084 l -0.002,-8.72 c -0.001,-5.05465 -0.14181,-9.22418 -0.3349,-9.91947 -0.18321,-0.65971 -0.66468,-1.58495 -1.06994,-2.05609 -0.60838,-0.707278 -1.0678,-0.880548 -2.6354,-0.993938 -1.22872,-0.0889 -2.29009,0.0272 -3.00827,0.3289 -0.61034,0.256428 -2.00971,1.219928 -3.10971,2.141118 l -2,1.67487 v 8.77231 8.7723 h -1.44 -1.44 z m 31.68,-4.64 V 17.135391 l 2.8,0.002 2.8,0.002 4.47026,13.787018 4.47026,13.78702 4.06015,-12.42887 c 2.23309,-6.835878 4.25347,-13.004878 4.48974,-13.708878 l 0.42959,-1.28 2.8,-0.0925 2.8,-0.0925 v 16.492378 16.49245 h -1.59684 -1.59683 l -0.0832,-14.91159 -0.0832,-14.911588 -4.81048,14.831588 -4.81048,14.83159 h -1.57514 -1.57513 L 216.376,35.434339 c -2.58622,-7.975638 -4.78869,-14.587638 -4.89438,-14.693328 -0.10569,-0.10569 -0.19216,6.45584 -0.19216,14.581168 v 14.77333 h -1.6 -1.6 z m 51.52,4.64 V 26.415391 h 1.44 1.44 l 10e-4,2 0.001,1.999998 0.60097,-0.98551 c 0.33053,-0.54203 1.13009,-1.421658 1.7768,-1.954738 0.64672,-0.53308 1.72445,-1.1336 2.39497,-1.33449 0.67052,-0.20089 1.67042,-0.36526 2.222,-0.36526 h 1.00287 v 1.44 1.44 h -0.97028 c -0.53365,0 -1.50565,0.2233 -2.16,0.496218 -0.65435,0.27292 -1.67535,0.95692 -2.26891,1.52 -0.59355,0.56308 -1.42014,1.74378 -1.83687,2.62378 l -0.75769,1.6 -0.003,7.6 -0.003,7.6 h -1.44 -1.44 z m -196.64765,3.58099 c -0.409018,-0.76389 -1.136616,-1.43527 -2.060153,-1.90099 -0.948725,-0.47841 -2.000929,-0.72 -3.135891,-0.72 -0.939448,0 -2.168936,0.23244 -2.732195,0.51654 -0.56326,0.28409 -1.420109,0.88703 -1.904109,1.33987 -0.484,0.45283 -0.88,0.68265 -0.88,0.5107 0,-0.17196 0.215314,-1.13929 0.478475,-2.14963 0.263162,-1.01035 0.779367,-2.42679 1.147122,-3.14765 0.367756,-0.72086 1.037469,-1.65247 1.488252,-2.07024 0.572804,-0.53086 1.197305,-0.75959 2.073915,-0.75959 0.689871,0 1.568843,0.16484 1.953273,0.36631 0.384429,0.20146 1.215015,0.7706 1.845745,1.26474 l 1.146783,0.89844 -0.468052,-1.82474 c -0.372536,-1.45237 -0.398883,-2.27582 -0.129105,-4.03509 0.199788,-1.302848 0.775103,-3.071458 1.40127,-4.307708 0.666523,-1.31593 2.034304,-3.11536 3.671114,-4.82965 1.434836,-1.50277 2.685823,-2.65731 2.779971,-2.56566 0.09415,0.0916 -1.196792,5.63263 -2.868755,12.313298 -1.671964,6.68066 -3.070393,12.17712 -3.107622,12.21435 -0.03723,0.0372 -0.352246,-0.46376 -0.700038,-1.1133 z M 6.5174178,41.535389 c -0.174232,-0.66 -1.538838,-6.09294 -3.032458,-12.07321 -1.49362,-5.980258 -2.646236,-10.942638 -2.561368,-11.027508 0.08487,-0.0849 1.335924,1.06408 2.780123,2.55321 1.77146,1.82657 2.964497,3.39766 3.666727,4.82863 0.5725,1.16661 1.190353,2.89461 1.373007,3.839998 0.182655,0.94539 0.236353,2.43888 0.11933,3.31888 -0.117023,0.88 -0.348178,1.95784 -0.513678,2.3952 l -0.300909,0.7952 0.740671,-0.6816 c 0.407369,-0.37488 1.2446702,-0.98418 1.8606702,-1.354 0.651405,-0.39108 1.669459,-0.6729 2.433273,-0.6736 0.9398,-8.6e-4 1.546354,0.21482 2.132878,0.75839 0.450783,0.41777 1.108777,1.32641 1.462209,2.01919 0.353433,0.69279 0.869638,2.13576 1.147122,3.20661 0.277485,1.07085 0.504518,2.06115 0.504518,2.20067 0,0.13953 -0.396,-0.11682 -0.88,-0.56965 -0.484,-0.45284 -1.340849,-1.05578 -1.904109,-1.33987 -0.566579,-0.28577 -1.781763,-0.5134 -2.72,-0.50951 -0.978567,0.004 -2.272037,0.26855 -3.0580122,0.62531 -0.844368,0.38326 -1.616599,1.04958 -2.031608,1.75297 -0.368218,0.62408 -0.721713,1.13469 -0.785545,1.13469 -0.06383,0 -0.25861,-0.54 -0.432841,-1.2 z M 33.049533,15.654471 c 0,-0.0225 0.228064,-0.58675 0.50681,-1.25389 0.384971,-0.92136 0.425085,-1.39234 0.166861,-1.95908 -0.246882,-0.54184 -0.60465,-0.74611 -1.306811,-0.74611 -0.540194,0 -1.249287,0.28243 -1.60686,0.64 -0.352,0.352 -0.64,0.928 -0.64,1.28 0,0.352 -0.133549,0.64 -0.296775,0.64 -0.163226,0 -0.591441,-0.3746 -0.95159,-0.83246 -0.360148,-0.45785 -0.747076,-1.32425 -0.859839,-1.92533 -0.118253,-0.63034 -0.03552,-1.5020802 0.195478,-2.0597702 0.220276,-0.53179 0.659285,-1.10539 0.975576,-1.27467 0.316292,-0.16927 1.170009,-0.30777 1.89715,-0.30777 0.727141,0 1.611507,0.1549 1.965259,0.34423 0.579654,0.31022 0.609184,0.28069 0.298963,-0.29897 -0.189323,-0.35375 -0.344222,-1.02271 -0.344222,-1.48658 0,-0.46387 0.54,-1.97781 1.199999,-3.36431 0.66,-1.3865 1.279168,-2.52843004 1.375929,-2.53764004 0.09676,-0.009 0.729386,1.11844004 1.405833,2.50587004 1.042901,2.13904 1.204763,2.74564 1.064552,3.98959 -0.150996,1.33964 -0.115128,1.44012 0.41313,1.15741 0.318165,-0.17028 1.170494,-0.3096 1.894064,-0.3096 0.970125,0 1.521835,0.20626 2.101038,0.78546 0.56524,0.56524 0.785454,1.13513 0.785454,2.0326802 0,0.765219 -0.27825,1.65789 -0.72,2.30987 -0.396,0.58446 -0.9,1.12176 -1.12,1.19399 -0.246242,0.0808 -0.4,-0.16736 -0.4,-0.64573 0,-0.42739 -0.263338,-1.01539 -0.585197,-1.30667 -0.321858,-0.29128 -1.045422,-0.5296 -1.60792,-0.5296 -0.801582,0 -1.089749,0.1763 -1.332702,0.81531 -0.224297,0.58995 -0.177882,1.13146 0.16792,1.95908 0.262845,0.62907 0.477899,1.16219 0.477899,1.18469 0,0.0225 -1.152,0.0409 -2.56,0.0409 -1.408,0 -2.559999,-0.0184 -2.559999,-0.0409 z"
       id="path7"
       sodipodi:nodetypes="cscsssscccssssscssssssscccsscssssssscsccccscsssssssssssssssssssssssccccccsssscsssscssscsssscssssssssscssscscsssssssssssscssssssscsssssssscsssssssssssssscsssssccsscscccscsssssssssssssssscsccsssssssssssssscsssssscscsccsscccccsssssscccccccccccsscsssssssssscsssscccssssssssscssssssssscssssscsssssssssssssscccssssssscccssscscsscsssccccsssssssscssscsscsssssssssscsssssscssscsssssssssssccccccsssssccccccsssssccccccccccccsscccccccccccccsssccccccccccsssscccssssccccccsssssssssssscsssscssssssssssscssssssssscsssssssssssssssssssscssssssscssssssss" /><path
       d="m 150.44664,76.584888 v -1.16214 h 0.736 0.736 l 0.384,-0.384 0.384,-0.384 -0.005,-0.976 -0.005,-0.976 -1.27548,-4.3118 -1.27549,-4.3118 v -0.4082 -0.4082 h 1.10767 1.10766 l 0.32023,1.2 0.32024,1.2 0.47131,2.03255 0.47131,2.03254 0.13127,0.13126 0.13126,0.13127 0.73821,-3.36381 0.73822,-3.36381 h 1.25287 1.25288 l -0.16913,0.56 -0.16913,0.56 -1.45262,5.38138 -1.45262,5.38138 -0.29017,0.5422 -0.29018,0.5422 -0.6448,0.58354 -0.64481,0.58354 -1.30483,0.17502 -1.30484,0.17501 z m -62.050023,-2.8602 -1.09003,-0.38194 -0.66997,-0.903 -0.66997,-0.90301 -0.11109,-5.73699 -0.11108,-5.737 h 1.47108 1.47109 v 5.40082 5.40082 l 0.45909,0.38101 0.4591,0.38102 1.0536,-0.10183 1.053609,-0.10184 0.40258,-0.8 0.402581,-0.8 0.005,-4.88 0.005,-4.88 h 1.28 1.28001 l -5e-4,5.36 -4.9e-4,5.36 -0.55952,1.12 -0.5595,1.12 -1.12,0.5595 -1.120001,0.55951 -1.119999,-0.0176 -1.12,-0.0176 z m 30.790453,-0.20601 -1.01957,-0.62168 -0.34043,-0.63609 -0.34042,-0.63608 v -3.08208 -3.08207 l 0.32949,-0.61565 0.32948,-0.61565 0.93463,-0.48332 0.93462,-0.48331 h 1.11506 1.11506 l 0.82068,0.31203 0.82069,0.31202 0.63895,1.04798 0.63895,1.04797 0.001,1.68 10e-4,1.68 h -2.72 -2.72 v 0.91041 0.9104 l 0.6413,0.58037 0.6413,0.58037 0.7987,-0.36392 0.7987,-0.36391 v -0.48686 -0.48686 h 1.28 1.28 v 0.17028 0.17028 l -0.46848,1.12124 -0.46849,1.12124 -1.12123,0.46848 -1.12124,0.46848 -0.89028,-10e-4 -0.89028,-0.001 z m 3.41958,-6.99193 v -0.576 l -0.384,-0.384 -0.384,-0.384 h -0.72474 -0.72474 l -0.33126,0.61896 -0.33126,0.61897 v 0.34103 0.34104 h 1.44 1.44 z m 11.29554,7.00769 -1.02447,-0.64339 -0.48423,-0.93641 -0.48424,-0.93641 0.99149,-0.1983 0.99149,-0.19829 0.74193,0.80055 0.74193,0.80056 h 0.30911 0.30911 l 0.50617,-0.19423 0.50617,-0.19424 v -0.55617 -0.55617 l -0.56,-0.49231 -0.56,-0.49231 -1.3842,-0.69614 -1.38421,-0.69613 -0.4267,-1.02123 -0.42669,-1.02123 0.16958,-0.88712 0.16958,-0.88712 0.80448,-0.6328 0.80447,-0.6328 h 1.25274 1.25273 l 0.93463,0.48331 0.93462,0.48332 0.32948,0.61565 0.32949,0.61565 v 0.18895 0.18896 l -0.84827,0.32251 -0.84827,0.32252 -0.72318,-0.6794 -0.72318,-0.67939 -0.58855,0.11223 -0.58855,0.11223 -0.10031,0.70187 -0.10031,0.70187 1.96344,0.99115 1.96345,0.99114 0.42777,1.0238 0.42777,1.0238 -0.16338,0.85464 -0.16338,0.85465 -0.7476,0.70233 -0.7476,0.70234 -1.37992,0.14047 -1.37993,0.14048 z m 12.22445,0.23416 -0.63999,-0.37115 -0.2351,-0.34735 -0.2351,-0.34735 -0.005,-3.44 -0.005,-3.44 h -0.48 -0.48 v -0.96 -0.96 h 0.48 0.48 v -1.44 -1.44 h 1.27999 1.28 v 1.44 1.44 h 0.8 0.8 v 0.96 0.96 h -0.81201 -0.81201 l 0.092,2.96 0.092,2.96 0.73843,0.10467 0.73844,0.10468 -0.0984,1.01532 -0.0984,1.01533 -1.12,0.0785 -1.12,0.0785 z m 18.72445,-0.16839 -1.11555,-0.57746 -0.39973,-0.8 -0.39974,-0.8 -0.005,-2.59225 -0.005,-2.59225 0.35469,-1.01747 0.3547,-1.01747 0.90941,-0.47028 0.90942,-0.47028 h 1.27506 1.27506 l 0.8055,0.30625 0.80551,0.30626 0.49532,0.95785 0.49533,0.95786 v 3.05084 3.05085 l -0.89038,0.9965 -0.89038,0.99651 -1.42962,0.146 -1.42962,0.146 z m 3.18429,-2.31642 0.33126,-0.61896 v -2.25366 -2.25366 l -0.77854,-0.51012 -0.77854,-0.51012 -0.66146,0.354 -0.66146,0.354 v 2.81541 2.81541 l 0.21333,0.21333 0.21334,0.21333 h 0.8954 0.89541 z m 24.01571,2.31642 -1.11555,-0.57746 -0.39973,-0.8 -0.39974,-0.8 -0.005,-2.59225 -0.005,-2.59225 0.35469,-1.01747 0.3547,-1.01747 0.90941,-0.47028 0.90942,-0.47028 h 1.27506 1.27505 l 0.80551,0.30625 0.80551,0.30626 0.49532,0.95785 0.49533,0.95786 v 3.05084 3.05085 l -0.89038,0.9965 -0.89038,0.99651 -1.42962,0.146 -1.42962,0.146 z m 3.18429,-2.31642 0.33126,-0.61896 v -2.25366 -2.25366 l -0.77854,-0.51012 -0.77854,-0.51012 -0.66146,0.354 -0.66146,0.354 v 2.81541 2.81541 l 0.21333,0.21333 0.21334,0.21333 h 0.8954 0.89541 z m 14.1749,2.36953 -0.69877,-0.48944 -0.33065,-1.19056 -0.33065,-1.19057 -0.002,-2.12 -0.002,-2.12 0.19557,-0.97784 0.19556,-0.97783 0.6169,-0.66217 0.6169,-0.66216 h 1.03633 1.03633 l 0.71121,0.49815 0.7112,0.49814 v -2.09814 -2.09815 h 1.28 1.28 v 6.88 6.88 h -1.12 -1.12 v -0.47529 -0.4753 l -1.04,0.6341 -1.04,0.6341 -0.6488,10e-4 -0.6488,0.001 z m 3.37236,-1.81457 0.384,-0.384 v -2.96474 -2.96474 l -0.61896,-0.33126 -0.61897,-0.33126 h -0.15818 -0.15818 l -0.50285,0.50286 -0.50286,0.50286 v 2.79314 2.79314 l 0.384,0.384 0.384,0.384 h 0.512 0.512 z m 5.92919,1.83752 -1.0148,-0.44143 -0.32683,-0.61069 -0.32683,-0.6107 -0.21735,-1.63844 -0.21735,-1.63845 0.22881,-1.83135 0.22881,-1.83135 0.90556,-0.90555 0.90556,-0.90556 h 1.74146 1.74146 l 0.83213,0.65456 0.83213,0.65455 0.32924,1.18545 0.32924,1.18544 -0.0163,1.92 -0.0163,1.92 -0.38193,1.12 -0.38194,1.12 -1.12,0.5595 -1.12,0.55951 -0.96,-0.012 -0.96,-0.012 z m 3.03081,-2.15752 0.384,-0.384 v -2.64474 -2.64474 l -0.68048,-0.36418 -0.68048,-0.36418 -0.75952,0.34606 -0.75952,0.34606 v 2.66286 2.66286 l 0.384,0.384 0.384,0.384 h 0.672 0.672 z m -125.055993,-2.976 v -5.28 h 1.12 1.12 v 0.48 0.48 l 0.24,-0.0102 0.24,-0.0102 0.621163,-0.46982 0.62116,-0.46982 h 0.99768 0.99768 l 0.62116,0.45352 0.62116,0.45353 0.10306,4.82647 0.10305,4.82648 h -1.30305 -1.30306 v -4.096 -4.096 l -0.3676,-0.36761 -0.3676,-0.3676 -0.912403,0.47182 -0.9124,0.47182 v 3.99178 3.99179 h -1.12 -1.12 z m 8.712073,0.08 0.0879,-5.2 1.2,-0.0993 1.2,-0.0993 v 5.29932 5.29932 h -1.28793 -1.28792 z m 5.0955,0.30295 -1.32757,-4.89704 v -0.38296 -0.38295 h 1.10767 1.10766 l 0.30714,1.2 0.30714,1.2 0.39938,1.85461 0.39939,1.8546 0.21766,0.13452 0.21765,0.13452 0.72308,-3.18913 0.72307,-3.18912 h 1.27932 1.27931 l -0.15619,0.40703 -0.15619,0.40703 -0.86115,3.19297 -0.86116,3.19297 -0.47959,1.68 -0.4796,1.68 h -1.20972 -1.20972 z m 15.95243,-0.38295 v -5.28 h 1.12 1.12 v 0.66323 0.66322 l 0.84316,-0.66322 0.84315,-0.66323 h 0.43685 0.43684 v 1.29889 1.29888 l -0.33819,-0.20901 -0.33818,-0.20901 -0.78182,0.19622 -0.78181,0.19623 v 3.9939 3.9939 h -1.28 -1.28 z m 14.08,0 v -5.28 h 1.12 1.12 v 5.28 5.28 h -1.12 -1.12 z m 31.99999,1.28 v -4 h -0.48 -0.48 v -0.96 -0.96 h 0.48 0.48 v -1.29454 -1.29455 l 0.78545,-0.78545 0.78546,-0.78546 h 1.13454 1.13455 v 1.12 1.12 h -0.64 -0.64 v 0.96 0.96 h 0.64 0.64 v 0.96 0.96 h -0.64 -0.64 v 4 4 h -1.28 -1.28 z m 9.6,-2.88 v -6.88 h 1.44 1.44 v 5.76 5.76 h 2.08 2.08 v 1.12 1.12 h -3.52 -3.52 z m 17.28,1.6 v -5.28 h 1.12 1.12 v 0.48 0.48 h 0.25884 0.25884 l 0.62116,-0.46982 0.62116,-0.46982 1.18185,-0.0102 1.18186,-0.0102 0.49814,0.7112 0.49815,0.7112 v 4.5688 4.5688 h -1.28 -1.28 v -4.28577 -4.28576 l -0.44326,-0.1701 -0.44327,-0.17009 -0.67673,0.474 -0.67674,0.47401 v 3.98185 3.98186 h -1.28 -1.28 z m 26.63207,0.08 0.0879,-5.2 1.2,-0.0993 1.2,-0.0993 v 0.49932 0.49931 l 0.24,-0.0102 0.24,-0.0102 0.62116,-0.46982 0.62116,-0.46982 h 1.03598 1.03598 l 0.50286,0.50286 0.50286,0.50285 v 4.77715 4.77714 h -1.12 -1.12 v -4.12082 -4.12082 l -0.4784,-0.39703 -0.4784,-0.39704 -0.8016,0.52523 -0.8016,0.52523 v 3.99263 3.99262 h -1.28793 -1.28793 z m -120.49872,-7.17333 -0.21334,-0.21333 v -0.90667 -0.90667 h 1.28 1.28 v 1.12 1.12 h -1.06666 -1.06667 z m 34.98666,-0.90667 v -1.12 h 1.12 1.12 v 1.12 1.12 h -1.12 -1.12 z"
       style="fill:#4d5ec0;fill-opacity:1"
       id="path1" /></g></svg>
